<svg height="24" width="24" xmlns="http://www.w3.org/2000/svg" xmlns:xlink="http://www.w3.org/1999/xlink"><linearGradient id="a" gradientTransform="matrix(-.222635 -.373813 .385616 -.215821 26.90433 54.12488)" gradientUnits="userSpaceOnUse" spreadMethod="reflect" x1="80.82019" x2="104.74687" y1="27.165281" y2="27.652287"><stop offset="0" stop-color="#abacae"/><stop offset=".11148844" stop-color="#7e8087"/><stop offset="1" stop-color="#fafafa"/></linearGradient><radialGradient id="b" cx="24.660349" cy="21.21833" gradientTransform="matrix(.50706084 0 0 .50357398 -7.16284 3.017055)" gradientUnits="userSpaceOnUse" r="4.300699"><stop offset="0" stop-color="#fff"/><stop offset="1" stop-color="#9d9d9d"/></radialGradient><linearGradient id="c" gradientTransform="matrix(.99811891 -.06130779 .06130779 .99811891 -204.416507 -215.470503)" gradientUnits="userSpaceOnUse" x1="194.15193" x2="195.83525" y1="235.83804" y2="240.80917"><stop offset="0" stop-color="#cfd1d3"/><stop offset="1" stop-color="#cfd1d3" stop-opacity="0"/></linearGradient><linearGradient id="d" gradientUnits="userSpaceOnUse" x1="16.015562" x2="16.015562" y1="1.894298" y2="15.044191"><stop offset="0" stop-color="#fff"/><stop offset=".40498418" stop-color="#fff" stop-opacity=".235294"/><stop offset=".74407381" stop-color="#fff" stop-opacity=".156863"/><stop offset="1" stop-color="#fff" stop-opacity=".392157"/></linearGradient><path d="m4.14242 6.88559c-.688.27691-1.6253 2.84407.8376 6.99851 2.325 3.92206 4.7067 4.73312 5.342 4.34396.6074-.37206.849-3.11964-1.3109-6.51492-1.7488-2.7491-4.1807-5.10446-4.8687-4.82755z" fill="#555753" stroke="#555761"/><path d="m10.36243 18.15507 11.05542-6.3172c3.26024-3.84976-2.1892-11.92813-6.26592-11.19477l-11.08164 6.18865c4.11624 2.00584 6.45639 7.13135 6.29214 11.32332z" fill="url(#a)" fill-rule="evenodd" stroke="#555761" stroke-linejoin="round"/><path d="m11.55125 16.33532 9.23016-5.10951c2.62584-3.11887-2.22853-10.73195-5.65581-9.6417l-9.2541 5.25831c2.60448 1.43538 5.38181 6.13656 5.67975 9.4929z" fill="none" stroke="url(#d)" stroke-width=".935906"/><path d="m11.50092 7.19685v-4.34797c0-3.18436-5-3.11978-5 .099v2.44781" fill="none" stroke="#555761" stroke-linecap="round"/><ellipse cx="5.341457" cy="13.702054" fill="url(#b)" fill-rule="evenodd" rx="1.927186" ry="1.913933" stroke="#555761" stroke-linecap="round" stroke-width="1.045637" transform="matrix(.86839481 -.49587343 .50413844 .86362286 0 0)"/><path d="m5.24851 19.48359c-2.85243 0-3.74759.85123-3.74759 1.96852 0 .80744.97138 2.02054 5.21476 2.02054h6.99179c3.57873 0 7.31984-.61499 7.31984-2.0132 0-1.35279-3.84445-1.98318-6.92624-1.99083l-1.20865-.003-1.38584.021c-2.35207-.45265-2.08803-2.81647-2.7047-4.71838-1.24071.8305-1.34182 1.89386-1.85735 3.41627-.22756.54895-1.07871 1.31114-1.69602 1.29908z" fill="#9bdb4d" fill-rule="evenodd" stroke="#3a9104" stroke-linejoin="round"/><path d="m4.2275 8.02426c-.18842.0744-.31331.25519-.31628.45775-.17839 2.4771 1.21465 5.11947 2.88997 6.27212.22591.15904.53798.10483.69702-.12108.15903-.22592.10482-.53798-.12109-.69702-1.2654-.87061-2.60531-3.37448-2.46011-5.39057.0213-.17673-.0529-.35148-.19491-.45883s-.33039-.1311-.4946-.0624z" fill="url(#c)"/><circle cx="-20.711163" cy="3.474029" fill="#fff" r=".947213" transform="rotate(-90)"/></svg>