<svg height="56" viewBox="0 0 56 56" width="56" xmlns="http://www.w3.org/2000/svg"><path d="m6.6505 42.2994h3.9395v3.643c0 4.3631 2.2027 6.5658 6.6505 6.5658h32.109c4.4053 0 6.6505-2.2027 6.6505-6.5658v-22.5143c0-4.342-2.2452-6.5447-6.6505-6.5447h-3.9395v-3.4311c0-4.3631-2.2239-6.5658-6.6297-6.5658h-32.1298c-4.4266 0-6.6505 2.2027-6.6505 6.5658v22.3025c0 4.3631 2.2239 6.5446 6.6505 6.5446zm.0636-3.41c-2.118 0-3.3041-1.1225-3.3041-3.3252v-21.9213c0-2.2027 1.1861-3.3465 3.3041-3.3465h32.0029c2.0968 0 3.2828 1.1438 3.2828 3.3465v3.2405h-24.7593c-4.4478 0-6.6505 2.1816-6.6505 6.5447v15.4613zm10.5688 10.2088c-2.118 0-3.2829-1.1437-3.2829-3.3464v-22.1331c0-2.2027 1.1649-3.3253 3.2829-3.3253h32.0028c2.0969 0 3.304 1.1226 3.304 3.3253v22.1331c0 2.2027-1.2071 3.3464-3.304 3.3464z"/></svg>