<svg height="100" width="100" xmlns="http://www.w3.org/2000/svg"><path d="m3 88v-81c0-3 1-4 4-4h86c3 0 4 2 4 5v85c0 2 0 4-4 4h-81z" fill="#90b1de" stroke="#2c3d60" stroke-width="1.5"/><path d="m6 6v81l7 7h81v-88z" fill="#4e7ec2"/><path d="m28 62c-4 0-4 2-4 4v31h52v-31c0-2-1-4-4-4zm10 4c7 0 6 3 6 3v18s1 3-6 3c-6 0-5-3-5-3v-18s-1-3 5-3z" fill="#999" stroke="#555" stroke-width="2"/><path d="m17 4h66v10h-66z" fill="#f00" fill-opacity=".7"/><path d="m17 14h66v42h-66z" fill="#eee"/><path d="m8 9h6v6h-6z" fill="#2c3d60"/><path d="m21 47h58m-58-12h58m-58-11h58" fill="none" stroke="#bbb" stroke-width="2"/></svg>